<svg width="134" height="108" viewBox="0 0 134 108" fill="none" xmlns="http://www.w3.org/2000/svg">
<path d="M80.4 20.25V67.5H13.4V20.25H80.4ZM13.4 6.75C6.00906 6.75 0 12.8039 0 20.25V67.5C0 74.9461 6.00906 81 13.4 81H37.9597L35.7194 87.75H20.1C16.3941 87.75 13.4 90.7664 13.4 94.5C13.4 98.2336 16.3941 101.25 20.1 101.25H73.7C77.4059 101.25 80.4 98.2336 80.4 94.5C80.4 90.7664 77.4059 87.75 73.7 87.75H58.0597L55.8194 81H80.4C87.7909 81 93.8 74.9461 93.8 67.5V20.25C93.8 12.8039 87.7909 6.75 80.4 6.75H13.4ZM110.55 6.75C105.002 6.75 100.5 11.2852 100.5 16.875V91.125C100.5 96.7148 105.002 101.25 110.55 101.25H123.95C129.498 101.25 134 96.7148 134 91.125V16.875C134 11.2852 129.498 6.75 123.95 6.75H110.55ZM113.9 20.25H120.6C122.442 20.25 123.95 21.7688 123.95 23.625C123.95 25.4813 122.442 27 120.6 27H113.9C112.057 27 110.55 25.4813 110.55 23.625C110.55 21.7688 112.057 20.25 113.9 20.25ZM110.55 37.125C110.55 35.2687 112.057 33.75 113.9 33.75H120.6C122.442 33.75 123.95 35.2687 123.95 37.125C123.95 38.9813 122.442 40.5 120.6 40.5H113.9C112.057 40.5 110.55 38.9813 110.55 37.125ZM117.25 70.875C119.027 70.875 120.731 71.5862 121.988 72.852C123.244 74.1179 123.95 75.8348 123.95 77.625C123.95 79.4152 123.244 81.1321 121.988 82.398C120.731 83.6638 119.027 84.375 117.25 84.375C115.473 84.375 113.769 83.6638 112.512 82.398C111.256 81.1321 110.55 79.4152 110.55 77.625C110.55 75.8348 111.256 74.1179 112.512 72.852C113.769 71.5862 115.473 70.875 117.25 70.875Z" fill="#FDC604"/>
</svg>
