<svg width="121" height="91" viewBox="0 0 121 91" fill="none" xmlns="http://www.w3.org/2000/svg">
<path d="M120.915 28.7562C120.902 28.578 120.885 28.4001 120.867 28.2223C120.33 20.5734 116.927 13.4115 111.34 8.17611C105.753 2.94068 98.3968 0.0197319 90.75 0.000308332H30.25C22.4959 -0.0348336 15.0281 2.9352 9.40593 8.29018C3.7838 13.6452 0.442096 20.9711 0.0786501 28.738C0.0181501 29.2173 0 29.7147 0 30.2729V69.7667C0 75.3784 2.25665 80.8566 6.1831 84.7878C10.1689 88.7584 15.5566 90.9909 21.175 91C32.065 91 36.3242 84.9333 42.35 72.8001C43.2333 71.0286 48.3516 60.6668 60.5 60.6668C72.5758 60.6668 77.7607 71.0225 78.65 72.8001C84.7242 84.9333 88.935 91 99.825 91C105.421 91 110.884 88.7371 114.805 84.7999C118.765 80.8031 120.991 75.4006 121 69.7667V30.3335C121 29.7572 120.976 29.2415 120.915 28.7562ZM30.25 42.6549C28.6387 42.6914 27.0363 42.4048 25.5369 41.8118C24.0375 41.2188 22.6714 40.3314 21.5188 39.2017C20.3662 38.0721 19.4502 36.7228 18.8247 35.2333C18.1993 33.7438 17.8769 32.1439 17.8764 30.5277C17.876 28.9115 18.1977 27.3116 18.8224 25.8217C19.4471 24.3319 20.3624 22.9822 21.5145 21.8519C22.6666 20.7216 24.0322 19.8336 25.5313 19.2398C27.0303 18.6461 28.6326 18.3586 30.244 18.3944C33.4054 18.4645 36.4139 19.7729 38.6254 22.0395C40.8369 24.306 42.0757 27.3507 42.0764 30.5217C42.0772 33.6926 40.84 36.7379 38.6297 39.0056C36.4193 41.2733 33.4115 42.5832 30.25 42.6549ZM90.75 12.3217C92.3546 12.3217 93.8934 12.9608 95.028 14.0985C96.1626 15.2363 96.8 16.7793 96.8 18.3883C96.8 19.9973 96.1626 21.5404 95.028 22.6781C93.8934 23.8158 92.3546 24.455 90.75 24.455C89.1454 24.455 87.6066 23.8158 86.472 22.6781C85.3374 21.5404 84.7 19.9973 84.7 18.3883C84.7 16.7793 85.3374 15.2363 86.472 14.0985C87.6066 12.9608 89.1454 12.3217 90.75 12.3217ZM78.65 36.5883C77.0454 36.5883 75.5066 35.9491 74.372 34.8114C73.2374 33.6737 72.6 32.1306 72.6 30.5216C72.6 28.9126 73.2374 27.3696 74.372 26.2318C75.5066 25.0941 77.0454 24.455 78.65 24.455C80.2546 24.455 81.7934 25.0941 82.928 26.2318C84.0626 27.3696 84.7 28.9126 84.7 30.5216C84.7 32.1306 84.0626 33.6737 82.928 34.8114C81.7934 35.9491 80.2546 36.5883 78.65 36.5883ZM90.75 48.7215C89.1454 48.7215 87.6066 48.0824 86.472 46.9447C85.3374 45.8069 84.7 44.2639 84.7 42.6549C84.7 41.0459 85.3374 39.5028 86.472 38.3651C87.6066 37.2274 89.1454 36.5883 90.75 36.5883C92.3546 36.5883 93.8934 37.2274 95.028 38.3651C96.1626 39.5028 96.8 41.0459 96.8 42.6549C96.8 44.2639 96.1626 45.8069 95.028 46.9447C93.8934 48.0824 92.3546 48.7215 90.75 48.7215ZM102.85 36.5883C101.245 36.5883 99.7066 35.9491 98.572 34.8114C97.4374 33.6737 96.8 32.1306 96.8 30.5216C96.8 28.9126 97.4374 27.3696 98.572 26.2318C99.7066 25.0941 101.245 24.455 102.85 24.455C104.455 24.455 105.993 25.0941 107.128 26.2318C108.263 27.3696 108.9 28.9126 108.9 30.5216C108.9 32.1306 108.263 33.6737 107.128 34.8114C105.993 35.9491 104.455 36.5883 102.85 36.5883Z" fill="#FDC604"/>
</svg>
