<svg width="105" height="105" viewBox="0 0 105 105" fill="none" xmlns="http://www.w3.org/2000/svg">
<path d="M13.3656 48.1222C14.2194 40.5132 17.2711 33.3176 22.1481 27.4146C27.025 21.5117 33.5158 17.1571 40.8275 14.8829C34.8779 25.0058 31.4241 36.3998 30.7519 48.1222H13.3656ZM48.09 4.57596C23.5812 6.79833 4.375 27.4078 4.375 52.497C4.375 77.5862 23.5812 98.1913 48.09 100.418L48.125 100.462L49.9844 100.554C50.8223 100.595 51.6611 100.617 52.5 100.619C53.339 100.619 54.1778 100.597 55.0156 100.554L56.875 100.466L56.91 100.422C81.4188 98.1869 100.625 77.5862 100.625 52.497C100.625 27.4078 81.4188 6.79833 56.91 4.57596L56.875 4.53221L55.0113 4.44034C53.3382 4.3542 51.6618 4.3542 49.9887 4.44034L48.125 4.52784L48.09 4.57158V4.57596ZM52.5088 13.1242C60.1478 23.2787 64.6562 35.4422 65.4806 48.1222H39.5194C40.3451 35.4418 44.855 23.2782 52.4956 13.1242H52.5H52.5088ZM30.7475 56.8717C31.4475 68.946 35.035 80.2548 40.8231 90.1111C33.5115 87.8369 27.0206 83.4823 22.1437 77.5793C17.2668 71.6764 14.215 64.4808 13.3612 56.8717H30.7475ZM52.4912 91.8697C44.8506 81.7158 40.3407 69.5522 39.515 56.8717H65.4762C64.6505 69.5522 60.1406 81.7158 52.5 91.8697H52.4912ZM64.1725 90.1111C70.1204 79.9877 73.5727 68.5938 74.2437 56.8717H91.63C90.7763 64.4808 87.7245 71.6764 82.8476 77.5793C77.9706 83.4823 71.4798 87.8369 64.1681 90.1111H64.1725ZM74.2437 48.1222C73.5437 36.0479 69.9562 24.7392 64.1681 14.8829C71.4806 17.1564 77.9724 21.5107 82.8501 27.4137C87.7279 33.3167 90.7803 40.5126 91.6344 48.1222H74.2481H74.2437Z" fill="#FDC604"/>
</svg>
