<svg width="296" height="66" viewBox="0 0 296 66" fill="none" xmlns="http://www.w3.org/2000/svg">
<g filter="url(#filter0_d_4_2)">
<mask id="mask0_4_2" style="mask-type:alpha" maskUnits="userSpaceOnUse" x="4" y="0" width="292" height="66">
<path d="M10.5 10.5C6.1 8.5 4.66667 2.66667 4.5 0L286.5 1L296 64C211.5 65.1667 41.1 66.8 35.5 64C28.5 60.5 33 59.5 32 50C31 40.5 28 45 22 36.5C16 28 22 30.5 20 22C18 13.5 16 13 10.5 10.5Z" fill="#D9D9D9"/>
</mask>
<g mask="url(#mask0_4_2)">
<rect x="-7" y="4" width="287" height="53" rx="26" fill="#B3B700"/>
</g>
</g>
<path d="M70.9219 37H69.7266V20.957H63.5273C63.4414 21.7617 63.3438 22.6211 63.2344 23.5352C63.125 24.4492 63.0039 25.3828 62.8711 26.3359C62.7461 27.2812 62.6133 28.2109 62.4727 29.125C62.3398 30.0391 62.1914 30.8984 62.0273 31.7031C61.8242 32.8047 61.582 33.7734 61.3008 34.6094C61.0195 35.4453 60.6445 36.0977 60.1758 36.5664C59.707 37.0352 59.082 37.2695 58.3008 37.2695C58.0195 37.2695 57.7656 37.2461 57.5391 37.1992C57.3203 37.1523 57.125 37.0938 56.9531 37.0234V35.957C57.1328 36.0273 57.3203 36.0898 57.5156 36.1445C57.7188 36.1914 57.9492 36.2148 58.207 36.2148C58.7539 36.2148 59.1914 36.0039 59.5195 35.582C59.8555 35.1523 60.1289 34.5781 60.3398 33.8594C60.5508 33.1328 60.7344 32.3203 60.8906 31.4219C61.0547 30.5312 61.2109 29.6016 61.3594 28.6328C61.5078 27.6562 61.6484 26.6641 61.7812 25.6562C61.9141 24.6484 62.043 23.6562 62.168 22.6797C62.293 21.6953 62.4062 20.7578 62.5078 19.8672H70.9219V37ZM76.6289 24.2617V33.4141C76.6289 33.5938 76.625 33.7773 76.6172 33.9648C76.6172 34.1523 76.6133 34.3438 76.6055 34.5391C76.6055 34.7344 76.6016 34.9258 76.5938 35.1133C76.5859 35.3008 76.5742 35.4844 76.5586 35.6641L84.1641 24.2617H85.6172V37H84.4922V27.7656C84.4922 27.5312 84.4922 27.2891 84.4922 27.0391C84.5 26.7812 84.5078 26.5273 84.5156 26.2773C84.5234 26.0195 84.5312 25.7773 84.5391 25.5508L76.8984 37H75.4805V24.2617H76.6289ZM90.8789 24.2617V28.5391C90.8789 29.6094 91.1445 30.3906 91.6758 30.8828C92.207 31.3672 92.9844 31.6094 94.0078 31.6094C94.8828 31.6094 95.668 31.4727 96.3633 31.1992C97.0664 30.9258 97.7383 30.5586 98.3789 30.0977V24.2617H99.5625V37H98.3789V31.1289C97.6836 31.5977 96.9844 31.9648 96.2812 32.2305C95.5859 32.4961 94.7656 32.6289 93.8203 32.6289C92.4688 32.6289 91.4414 32.2852 90.7383 31.5977C90.043 30.9023 89.6953 29.9297 89.6953 28.6797V24.2617H90.8789ZM105.012 24.2617V29.8398H113.039V24.2617H114.223V37H113.039V30.8828H105.012V37H103.816V24.2617H105.012ZM118.488 37V24.2617H119.684V29.6289H124.043C125.043 29.6289 125.859 29.7695 126.492 30.0508C127.133 30.332 127.605 30.7383 127.91 31.2695C128.223 31.8008 128.379 32.4414 128.379 33.1914C128.379 33.9883 128.215 34.6719 127.887 35.2422C127.559 35.8047 127.055 36.2383 126.375 36.543C125.695 36.8477 124.832 37 123.785 37H118.488ZM119.684 35.9922H123.656C124.867 35.9922 125.758 35.7617 126.328 35.3008C126.898 34.8398 127.184 34.1406 127.184 33.2031C127.184 32.3516 126.906 31.7148 126.352 31.293C125.805 30.8711 124.977 30.6602 123.867 30.6602H119.684V35.9922ZM130.406 37V24.2617H131.59V37H130.406ZM136.98 24.2617V33.4141C136.98 33.5938 136.977 33.7773 136.969 33.9648C136.969 34.1523 136.965 34.3438 136.957 34.5391C136.957 34.7344 136.953 34.9258 136.945 35.1133C136.938 35.3008 136.926 35.4844 136.91 35.6641L144.516 24.2617H145.969V37H144.844V27.7656C144.844 27.5312 144.844 27.2891 144.844 27.0391C144.852 26.7812 144.859 26.5273 144.867 26.2773C144.875 26.0195 144.883 25.7773 144.891 25.5508L137.25 37H135.832V24.2617H136.98ZM144.762 19.1641C144.715 19.9141 144.535 20.5312 144.223 21.0156C143.918 21.5 143.484 21.8633 142.922 22.1055C142.359 22.3398 141.68 22.457 140.883 22.457C140.078 22.457 139.402 22.3438 138.855 22.1172C138.316 21.8828 137.898 21.5234 137.602 21.0391C137.312 20.5469 137.148 19.9219 137.109 19.1641H138.234C138.312 20.0234 138.559 20.6406 138.973 21.0156C139.395 21.3828 140.035 21.5664 140.895 21.5664C141.73 21.5664 142.375 21.3828 142.828 21.0156C143.289 20.6484 143.555 20.0312 143.625 19.1641H144.762ZM163.418 24.2617H164.789L159.023 30.4492L165.141 37H163.676L157.676 30.543V37H156.48V24.2617H157.676V30.4492L163.418 24.2617ZM171.938 24.0391C173.336 24.0391 174.383 24.3906 175.078 25.0938C175.773 25.7969 176.121 26.918 176.121 28.457V37H175.207L174.996 34.7734H174.926C174.652 35.25 174.32 35.6758 173.93 36.0508C173.539 36.418 173.059 36.707 172.488 36.918C171.926 37.1289 171.238 37.2344 170.426 37.2344C169.605 37.2344 168.902 37.0977 168.316 36.8242C167.738 36.5508 167.289 36.1523 166.969 35.6289C166.656 35.1055 166.5 34.4688 166.5 33.7188C166.5 32.4531 167.023 31.4922 168.07 30.8359C169.117 30.1719 170.621 29.7969 172.582 29.7109L174.949 29.5938V28.668C174.949 27.3633 174.691 26.4336 174.176 25.8789C173.66 25.3242 172.898 25.0469 171.891 25.0469C171.234 25.0469 170.602 25.1328 169.992 25.3047C169.391 25.4688 168.777 25.707 168.152 26.0195L167.777 25.0352C168.387 24.7461 169.039 24.5078 169.734 24.3203C170.438 24.1328 171.172 24.0391 171.938 24.0391ZM174.938 30.5195L172.711 30.6133C171.094 30.6914 169.863 30.9805 169.02 31.4805C168.176 31.9805 167.754 32.7305 167.754 33.7305C167.754 34.5352 168.004 35.1523 168.504 35.582C169.012 36.0117 169.715 36.2266 170.613 36.2266C172.012 36.2266 173.078 35.8281 173.812 35.0312C174.555 34.2344 174.93 33.1484 174.938 31.7734V30.5195ZM179.52 29.3477C179.52 27.7461 179.645 26.3672 179.895 25.2109C180.152 24.0547 180.531 23.1016 181.031 22.3516C181.539 21.5938 182.168 21.0195 182.918 20.6289C183.754 20.0898 184.758 19.6758 185.93 19.3867C187.109 19.0977 188.477 18.8633 190.031 18.6836L190.219 19.7383C189.406 19.832 188.652 19.9375 187.957 20.0547C187.27 20.1719 186.641 20.3047 186.07 20.4531C185.5 20.5938 184.988 20.7539 184.535 20.9336C184.09 21.1133 183.703 21.3164 183.375 21.543C182.859 21.8555 182.418 22.2969 182.051 22.8672C181.684 23.4297 181.391 24.125 181.172 24.9531C180.953 25.7812 180.816 26.75 180.762 27.8594H180.855C181.145 27.3359 181.52 26.8711 181.98 26.4648C182.449 26.0586 182.988 25.7383 183.598 25.5039C184.207 25.2617 184.875 25.1406 185.602 25.1406C186.672 25.1406 187.57 25.3672 188.297 25.8203C189.031 26.2656 189.586 26.9219 189.961 27.7891C190.336 28.6484 190.523 29.6953 190.523 30.9297C190.523 32.1953 190.32 33.3047 189.914 34.2578C189.508 35.2031 188.898 35.9375 188.086 36.4609C187.281 36.9766 186.273 37.2344 185.062 37.2344C184.078 37.2344 183.234 37.0352 182.531 36.6367C181.828 36.2305 181.254 35.6719 180.809 34.9609C180.371 34.2422 180.047 33.4062 179.836 32.4531C179.625 31.4922 179.52 30.457 179.52 29.3477ZM185.156 36.2031C186.094 36.2031 186.867 35.9961 187.477 35.582C188.086 35.1602 188.539 34.5625 188.836 33.7891C189.133 33.0078 189.281 32.082 189.281 31.0117C189.281 29.4258 188.957 28.2266 188.309 27.4141C187.66 26.5938 186.711 26.1836 185.461 26.1836C184.734 26.1836 184.074 26.3164 183.48 26.582C182.887 26.8477 182.359 27.2148 181.898 27.6836C181.445 28.1445 181.055 28.6758 180.727 29.2773C180.727 30.1445 180.793 30.9922 180.926 31.8203C181.059 32.6406 181.289 33.3828 181.617 34.0469C181.945 34.7109 182.395 35.2383 182.965 35.6289C183.543 36.0117 184.273 36.2031 185.156 36.2031ZM195.152 24.2617V33.4141C195.152 33.5938 195.148 33.7773 195.141 33.9648C195.141 34.1523 195.137 34.3438 195.129 34.5391C195.129 34.7344 195.125 34.9258 195.117 35.1133C195.109 35.3008 195.098 35.4844 195.082 35.6641L202.688 24.2617H204.141V37H203.016V27.7656C203.016 27.5312 203.016 27.2891 203.016 27.0391C203.023 26.7812 203.031 26.5273 203.039 26.2773C203.047 26.0195 203.055 25.7773 203.062 25.5508L195.422 37H194.004V24.2617H195.152ZM209.613 24.2617V29.8398H217.641V24.2617H218.824V37H217.641V30.8828H209.613V37H208.418V24.2617H209.613ZM227.906 24.0156C228.992 24.0156 229.895 24.2695 230.613 24.7773C231.34 25.2852 231.879 25.9805 232.23 26.8633C232.59 27.7461 232.77 28.7578 232.77 29.8984V30.7539H223.57C223.57 32.5039 223.973 33.8477 224.777 34.7852C225.59 35.7227 226.75 36.1914 228.258 36.1914C229.047 36.1914 229.73 36.1289 230.309 36.0039C230.895 35.8711 231.543 35.6484 232.254 35.3359V36.4258C231.629 36.707 231.004 36.9102 230.379 37.0352C229.754 37.168 229.035 37.2344 228.223 37.2344C226.934 37.2344 225.852 36.9688 224.977 36.4375C224.109 35.8984 223.453 35.1406 223.008 34.1641C222.57 33.1875 222.352 32.0469 222.352 30.7422C222.352 29.4688 222.562 28.3242 222.984 27.3086C223.414 26.293 224.039 25.4922 224.859 24.9062C225.688 24.3125 226.703 24.0156 227.906 24.0156ZM227.895 25.0352C226.676 25.0352 225.688 25.4414 224.93 26.2539C224.18 27.0586 223.738 28.2227 223.605 29.7461H231.539C231.539 28.8164 231.406 27.9961 231.141 27.2852C230.875 26.5742 230.473 26.0234 229.934 25.6328C229.402 25.2344 228.723 25.0352 227.895 25.0352ZM244.395 25.3047H240.082V37H238.922V25.3047H234.633V24.2617H244.395V25.3047Z" fill="white"/>
<defs>
<filter id="filter0_d_4_2" x="0.5" y="4" width="283.5" height="61" filterUnits="userSpaceOnUse" color-interpolation-filters="sRGB">
<feFlood flood-opacity="0" result="BackgroundImageFix"/>
<feColorMatrix in="SourceAlpha" type="matrix" values="0 0 0 0 0 0 0 0 0 0 0 0 0 0 0 0 0 0 127 0" result="hardAlpha"/>
<feOffset dy="4"/>
<feGaussianBlur stdDeviation="2"/>
<feComposite in2="hardAlpha" operator="out"/>
<feColorMatrix type="matrix" values="0 0 0 0 0 0 0 0 0 0 0 0 0 0 0 0 0 0 0.25 0"/>
<feBlend mode="normal" in2="BackgroundImageFix" result="effect1_dropShadow_4_2"/>
<feBlend mode="normal" in="SourceGraphic" in2="effect1_dropShadow_4_2" result="shape"/>
</filter>
</defs>
</svg>
